<svg width="40" height="40" viewBox="0 0 40 40" fill="none" xmlns="http://www.w3.org/2000/svg">
<g id="Group">
<path id="Vector" d="M20 0C8.97185 0 0 8.97238 0 20C0 31.0287 8.97185 40 20 40C31.0282 40 40 31.0287 40 20C40 8.97238 31.0282 0 20 0ZM20 38.5703C16.082 38.5703 12.4455 37.3472 9.44659 35.2675C9.35413 33.8653 9.92755 32.0616 10.2256 31.2415H11.389C11.7837 31.2415 12.1046 30.921 12.1046 30.526V29.0931C12.1046 28.9086 12.0322 28.7305 11.9045 28.5974L10.9681 27.6258L10.8115 26.9523L11.2869 25.8476C11.3677 25.6599 11.3628 25.4471 11.2766 25.2621L10.71 24.0556C10.6114 23.8441 10.4147 23.6947 10.1856 23.6544L7.26539 23.1489L4.23475 20.759C3.9753 20.5548 3.59095 20.5693 3.3308 20.7739C3.14518 20.9208 2.35647 21.1137 1.4753 21.2445C1.4477 20.8322 1.42975 20.4185 1.42975 20C1.42975 19.745 1.43872 19.4935 1.4477 19.2413L2.50483 19.8292C2.61386 19.8903 2.73323 19.9203 2.85261 19.9203C2.95887 19.9203 3.06652 19.8968 3.1645 19.8492L4.9517 18.9846C5.13318 18.897 5.2698 18.7366 5.32708 18.5437C5.38435 18.3502 5.35675 18.1414 5.25048 17.9696L4.54113 16.8021C5.66174 16.4578 6.93141 15.6146 7.16602 13.8791C7.30196 12.8838 8.09688 12.4163 8.86627 11.964C9.5363 11.5703 10.5513 10.9741 10.1346 9.89149C9.81369 9.05863 9.80196 7.66858 9.82404 7.2042C9.83094 7.03479 9.77988 6.86884 9.67775 6.73463L8.61579 5.34424C11.7161 2.93088 15.5969 1.477 19.8116 1.43456L18.8 2.83496L14.9317 3.50015C14.7875 3.52533 14.6515 3.59468 14.548 3.69956L13.6337 4.61247L12.4006 5.05029C12.1867 5.12688 12.0211 5.30076 11.9556 5.51881L11.1503 8.20059C11.0923 8.39552 11.1199 8.60701 11.2269 8.78021L13.0148 11.6856C13.1272 11.8684 13.3163 11.9902 13.5295 12.0195C13.74 12.0471 13.9567 11.9785 14.1126 11.8308L16.1517 9.91461L18.0382 9.84457L19.5618 11.0259C19.704 11.1373 19.8813 11.1898 20.0649 11.1736L22.8153 10.9245L25.7542 12.4918L27.8906 17.5759C27.9692 17.764 28.1259 17.9099 28.3191 17.9755C28.5137 18.0407 28.7255 18.021 28.9035 17.9196L32.7477 15.7301C32.9692 15.6028 33.1072 15.3658 33.1072 15.1088V13.9016L33.3198 13.7725L34.0353 14.4643L33.8787 15.3406C33.8476 15.5142 33.8815 15.6925 33.9739 15.8423L36.0751 19.2389C36.2041 19.4494 36.4353 19.5777 36.683 19.5777H36.6844C36.9335 19.577 37.1633 19.4469 37.293 19.2355L38.3895 17.439C38.5054 18.277 38.5702 19.1309 38.5702 20C38.5702 30.24 30.2394 38.5703 20 38.5703Z" fill="black"/>
<path id="Vector_2" d="M29.4107 22.9112C29.5729 22.7756 29.666 22.5745 29.666 22.3637V20.8139C29.666 20.4319 29.3645 20.1169 28.9822 20.1C27.1302 20.0193 25.483 16.6251 25.0048 15.324C24.9407 15.1508 24.8123 15.0073 24.6453 14.9273L21.9928 13.6466C21.7603 13.5345 21.487 13.5569 21.2752 13.7025L19.7958 14.7285L18.6434 14.0806V13.0097C18.6434 12.6136 18.3239 12.2938 17.9285 12.2938H14.2341C14.0374 12.2938 13.8497 12.3749 13.7145 12.5177L9.54321 16.9263C9.37899 17.1005 9.31205 17.3455 9.36657 17.5783L9.96207 20.1604C9.99588 20.3039 10.0725 20.4337 10.1808 20.5313L13.3384 23.3714C13.5551 23.5667 13.869 23.6109 14.1292 23.4836L16.111 22.5196L17.2509 22.7684L17.3337 24.0197C17.3392 24.0956 17.3572 24.1705 17.3855 24.2412L18.2149 26.2889L18.05 28.3241C18.041 28.4355 18.0589 28.548 18.101 28.6518L20.483 34.4905C20.5948 34.7634 20.8591 34.9359 21.1462 34.9359C21.1841 34.9359 21.2221 34.9328 21.2614 34.9262C21.3877 34.9052 24.3769 34.3894 24.5991 31.718C24.7537 29.8594 26.5864 27.9449 26.605 27.9256C26.7417 27.7845 26.8148 27.5916 26.8065 27.3943L26.703 25.1859L29.4107 22.9112Z" fill="black"/>
<path id="Vector_3" d="M33.1307 25.2287L31.9238 24.4689C31.7479 24.3568 31.5305 24.3285 31.3311 24.3913C31.1317 24.4534 30.9688 24.6004 30.8867 24.7929L30.0628 26.7146L29.0353 27.1393C28.8318 27.2239 28.6779 27.3981 28.6193 27.6106L27.4876 31.7428C27.4441 31.9906 27.3372 32.8455 27.8016 33.3999C28.0334 33.6749 28.366 33.8267 28.7421 33.8267C29.2127 33.8267 29.7399 33.5997 30.403 33.1136C32.8167 31.3399 33.435 26.1357 33.4605 25.9149C33.4923 25.642 33.3633 25.3749 33.1307 25.2287Z" fill="black"/>
</g>
</svg>
